<?xml version="1.0" encoding="UTF-8"?>
<svg id="Layer_2" xmlns="http://www.w3.org/2000/svg" viewBox="0 0 336.79 84.7">
  <defs>
    <style>
      .cls-1 {
        fill: #fff;
      }
    </style>
  </defs>
  <g id="Layer_1-2" data-name="Layer_1">
    <g>
      <g>
        <path class="cls-1" d="M117.95,75.72c-2.23,0-4.03-1.8-4.03-4.03V24.13c0-2.46-1.99-4.45-4.45-4.45h-2.27c-2.23,0-4.03-1.8-4.03-4.03v-2.64c0-2.23,1.8-4.03,4.03-4.03h23.96c2.23,0,4.03,1.8,4.03,4.03v2.64c0,2.23-1.8,4.03-4.03,4.03h-2.27c-2.46,0-4.45,1.99-4.45,4.45v47.57c0,2.23-1.8,4.03-4.03,4.03h-2.46Z"/>
        <path class="cls-1" d="M168.58,75.72c-2.22,0-4.03-1.8-4.03-4.03v-21.38c0-2.46-1.99-4.45-4.45-4.45h-4.11c-2.46,0-4.45,1.99-4.45,4.45v21.38c0,2.23-1.8,4.03-4.03,4.03h-2.46c-2.23,0-4.03-1.8-4.03-4.03V13.01c0-2.23,1.8-4.03,4.03-4.03h2.46c2.23,0,4.03,1.8,4.03,4.03v17.71c0,2.46,1.99,4.45,4.45,4.45h4.11c2.46,0,4.45-1.99,4.45-4.45V13.01c0-2.23,1.8-4.03,4.03-4.03h2.46c2.23,0,4.03,1.8,4.03,4.03v58.68c0,2.23-1.8,4.03-4.03,4.03h-2.46Z"/>
        <path class="cls-1" d="M199.16,76.64c-12.6,0-16.65-4.87-16.65-20.05v-28.48c0-14.99,4.2-20.05,16.65-20.05s16.65,5.06,16.65,20.05v28.48c0,15.18-4.05,20.05-16.65,20.05ZM199.16,18.76c-3.93,0-5.77,2.12-5.77,6.69v34.27c0,4.19,1.89,6.23,5.77,6.23s5.77-2.04,5.77-6.23V25.45c0-4.56-1.83-6.69-5.77-6.69Z"/>
        <path class="cls-1" d="M239.52,76.64c-12.6,0-16.65-4.65-16.65-19.13v-30.32c0-14.48,4.05-19.13,16.65-19.13s16.47,4.65,16.47,19.13v1.04c0,2.23-1.8,4.03-4.03,4.03h-2.46c-2.23,0-4.03-1.8-4.03-4.03v-3.25c0-4.19-1.92-6.23-5.86-6.23s-5.86,2.04-5.86,6.23v34.73c0,4.19,1.92,6.23,5.86,6.23s5.86-2.04,5.86-6.23v-3.25c0-2.23,1.8-4.03,4.03-4.03h2.46c2.23,0,4.03,1.8,4.03,4.03v1.04c0,14.48-4,19.13-16.47,19.13Z"/>
        <path class="cls-1" d="M292.83,75.72c-2.32,0-2.78-.48-3.28-2.24l-6.61-23.79c-.37-1.36-1.14-1.64-1.72-1.64-.67,0-1.24.43-1.6.76l-3.71,3.62c-1.24,1.12-1.43,1.8-1.43,3.53v15.74c0,2.23-1.8,4.03-4.03,4.03h-2.46c-2.23,0-4.03-1.8-4.03-4.03V13.01c0-2.23,1.8-4.03,4.03-4.03h2.27c2.23,0,4.03,1.8,4.03,4.03v21.9c0,1.86,1.39,2,1.82,2,.78,0,1.28-.22,2.08-.9l3.88-3.51c4.06-3.67,4.67-5.23,4.67-11.92v-7.57c0-2.23,1.8-4.03,4.03-4.03h2.46c2.23,0,4.03,1.8,4.03,4.03v7.57c0,10.4-.48,12-5.14,17.09-.97.97-1.18,1.75-.79,3.06l8.63,31.4c.26.95.47,2.2-.01,2.84-.47.62-1.69.75-2.62.75h-4.5Z"/>
        <path class="cls-1" d="M318.73,75.72c-2.23,0-4.03-1.8-4.03-4.03v-15.01c0-1.33-.09-2.14-.63-3.45l-8.82-20.86c-2.08-4.79-2.3-7.03-2.3-13.82v-5.55c0-2.23,1.8-4.03,4.03-4.03h2.82c2.23,0,4.03,1.8,4.03,4.03v7.75c0,2.22.11,3.52.78,5.82l3.12,11.29c.29.97.69,1.9,2.14,1.9s1.85-.93,2.14-1.87l3.13-11.32c.67-2.28.77-3.58.77-5.8v-7.75c0-2.23,1.8-4.03,4.03-4.03h2.82c2.23,0,4.03,1.8,4.03,4.03v5.55c0,6.79-.23,9.03-2.3,13.81l-8.82,20.86c-.54,1.31-.64,2.12-.64,3.45v15.01c0,2.23-1.8,4.03-4.03,4.03h-2.27Z"/>
      </g>
      <path class="cls-1" d="M92.56,60.08s-7.7-38.1-7.7-38.1c0-.04-.03-.07-.04-.11-.02-.07-.02-.13-.04-.2-.03-.09-.07-.17-.1-.25-.02-.04-.03-.08-.05-.12-.02-.04-.03-.09-.05-.13-.02-.05-.04-.09-.06-.14,0-.01,0-.03-.02-.04-.04-.06-.08-.12-.12-.18-.08-.14-.17-.27-.27-.39,0-.01-.02-.02-.03-.03-.3-.36-.65-.63-1.03-.82L48.16.43s-.02,0-.02-.01c-.15-.08-.31-.14-.47-.2-.06-.02-.12-.05-.19-.07-.01,0-.02,0-.03-.01-.14-.04-.28-.06-.42-.08-.07-.01-.15-.03-.22-.04,0,0-.01,0-.02,0-.17-.02-.33,0-.5,0-.05,0-.1,0-.15,0-.19.02-.37.06-.55.11-.03,0-.07.01-.1.02-.19.06-.38.13-.56.22-.02.01-.04.02-.06.03-.04.02-.08.04-.11.06L9.87,19.58c-.37.19-.7.45-.98.79-.02.02-.03.04-.05.05-.1.12-.18.25-.27.39-.04.06-.09.11-.12.17,0,.01,0,.03-.02.04-.02.04-.04.09-.06.14-.02.05-.04.1-.06.15-.01.03-.03.07-.04.1-.03.09-.08.17-.1.25-.02.06-.03.13-.04.2-.01.04-.03.07-.04.11L.39,60.08s-.21,1.05-.37,1.83c-.1.5.16,1.01.62,1.22,4.05,1.86,22.18,10.2,23.17,10.64.63.32,1.2-.62.64-1.04l-16.03-12.75c-.45-.36-.67-.95-.55-1.52l5.73-28.38c.21-1.02,1.34-1.55,2.26-1.05l26.55,14.56c.46.25.76.72.8,1.24l2.9,39.51c.02.47.75.45.77,0,0-.65,2.2-29.35,2.9-39.51.04-.52.34-.99.8-1.24l26.54-14.56c.91-.5,2.05.03,2.26,1.05l5.74,28.4c.11.57-.1,1.15-.55,1.51l-16.08,12.94c-.4.31,0,.96.46.75l22.03-9.93,1.02-.46c.66-.3,1.02-1.01.88-1.72l-.3-1.5ZM45.73,37.45l-24.46-13.42c-1.07-.59-1.07-2.12,0-2.71l24.46-13.42c.46-.25,1.02-.25,1.49,0l24.46,13.42c1.07.59,1.07,2.12,0,2.71l-24.46,13.42c-.46.25-1.02.25-1.49,0Z"/>
    </g>
  </g>
</svg>